<svg xmlns="http://www.w3.org/2000/svg" xmlns:xlink="http://www.w3.org/1999/xlink" viewBox="0 0 1000 470" font-family="Battambang, Siemreap, sans-serif"><rect width="1000" height="470" fill="#ffffff"/><text x="24.0" y="38.0" font-size="24" fill="#2e7d32" text-anchor="start" font-weight="bold" class="ftitle">ប៉ារ៉ាម៉ែត្រ scale ប្ដូរចម្លើយ</text><text x="24.0" y="64.0" font-size="15" fill="#607d8b" text-anchor="start" font-weight="normal" class="fsub">តំបន់ ក ដដែល គណនាលើមាត្រដ្ឋានបួន · Landsat 8 OLI · ភ្នំពេញ · ១១ កុម្ភៈ ២០១៩ · USGS</text><rect x="90.0" y="100.0" width="460.0" height="280.0" rx="0" fill="#fff" stroke="#cfd8dc" stroke-width="0.8" /><line x1="90.0" y1="380.0" x2="550.0" y2="380.0" stroke="#eceff1" stroke-width="0.8"/><text x="84.0" y="384.0" font-size="12" fill="#546e7a" text-anchor="end" font-weight="normal" >០</text><line x1="90.0" y1="310.0" x2="550.0" y2="310.0" stroke="#eceff1" stroke-width="0.8"/><text x="84.0" y="314.0" font-size="12" fill="#546e7a" text-anchor="end" font-weight="normal" >០.២</text><line x1="90.0" y1="240.0" x2="550.0" y2="240.0" stroke="#eceff1" stroke-width="0.8"/><text x="84.0" y="244.0" font-size="12" fill="#546e7a" text-anchor="end" font-weight="normal" >០.៤</text><line x1="90.0" y1="170.0" x2="550.0" y2="170.0" stroke="#eceff1" stroke-width="0.8"/><text x="84.0" y="174.0" font-size="12" fill="#546e7a" text-anchor="end" font-weight="normal" >០.៦</text><line x1="90.0" y1="100.0" x2="550.0" y2="100.0" stroke="#eceff1" stroke-width="0.8"/><text x="84.0" y="104.0" font-size="12" fill="#546e7a" text-anchor="end" font-weight="normal" >០.៨</text><path d="M90.0 341.6 L243.3 341.3 L396.7 341.6 L550.0 340.7" fill="none" stroke="#2e7d32" stroke-width="3" opacity="1" /><line x1="470.0" y1="118.0" x2="492.0" y2="118.0" stroke="#2e7d32" stroke-width="3"/><text x="498.0" y="123.0" font-size="13" fill="#263238" text-anchor="start" font-weight="normal" >mean</text><path d="M90.0 278.7 L243.3 283.5 L396.7 296.6 L550.0 312.6" fill="none" stroke="#6a1b9a" stroke-width="3" opacity="1" /><line x1="470.0" y1="140.0" x2="492.0" y2="140.0" stroke="#6a1b9a" stroke-width="3"/><text x="498.0" y="145.0" font-size="13" fill="#263238" text-anchor="start" font-weight="normal" >stdDev</text><path d="M90.0 130.8 L243.3 138.9 L396.7 210.3 L550.0 267.1" fill="none" stroke="#ef6c00" stroke-width="3" opacity="1" /><line x1="470.0" y1="162.0" x2="492.0" y2="162.0" stroke="#ef6c00" stroke-width="3"/><text x="498.0" y="167.0" font-size="13" fill="#263238" text-anchor="start" font-weight="normal" >max</text><text x="320.0" y="422.0" font-size="14" fill="#263238" text-anchor="middle" font-weight="normal" >scale</text><text x="44.0" y="240.0" font-size="14" fill="#263238" text-anchor="middle" font-weight="normal" transform="rotate(-90 44 240.0)">NDVI</text><text x="90.0" y="404.0" font-size="13" fill="#546e7a" text-anchor="middle" font-weight="normal" >៣០ ម</text><text x="243.3" y="404.0" font-size="13" fill="#546e7a" text-anchor="middle" font-weight="normal" >៩០ ម</text><text x="396.7" y="404.0" font-size="13" fill="#546e7a" text-anchor="middle" font-weight="normal" >៣០០ ម</text><text x="550.0" y="404.0" font-size="13" fill="#546e7a" text-anchor="middle" font-weight="normal" >៩០០ ម</text><circle cx="90.0" cy="341.6" r="5.00" fill="#2e7d32" stroke="none" stroke-width="1" opacity="1"/><circle cx="243.3" cy="341.3" r="5.00" fill="#2e7d32" stroke="none" stroke-width="1" opacity="1"/><circle cx="396.7" cy="341.6" r="5.00" fill="#2e7d32" stroke="none" stroke-width="1" opacity="1"/><circle cx="550.0" cy="340.7" r="5.00" fill="#2e7d32" stroke="none" stroke-width="1" opacity="1"/><circle cx="90.0" cy="278.7" r="5.00" fill="#6a1b9a" stroke="none" stroke-width="1" opacity="1"/><circle cx="243.3" cy="283.5" r="5.00" fill="#6a1b9a" stroke="none" stroke-width="1" opacity="1"/><circle cx="396.7" cy="296.6" r="5.00" fill="#6a1b9a" stroke="none" stroke-width="1" opacity="1"/><circle cx="550.0" cy="312.6" r="5.00" fill="#6a1b9a" stroke="none" stroke-width="1" opacity="1"/><circle cx="90.0" cy="130.8" r="5.00" fill="#ef6c00" stroke="none" stroke-width="1" opacity="1"/><circle cx="243.3" cy="138.9" r="5.00" fill="#ef6c00" stroke="none" stroke-width="1" opacity="1"/><circle cx="396.7" cy="210.3" r="5.00" fill="#ef6c00" stroke="none" stroke-width="1" opacity="1"/><circle cx="550.0" cy="267.1" r="5.00" fill="#ef6c00" stroke="none" stroke-width="1" opacity="1"/><rect x="600.0" y="100.0" width="370.0" height="280.0" rx="8" fill="#fafafa" stroke="#cfd8dc" stroke-width="1" /><text x="620.0" y="128.0" font-size="16" fill="#263238" text-anchor="start" font-weight="bold" >តំបន់ ក តាមមាត្រដ្ឋាន</text><text x="620.0" y="162.0" font-size="13" fill="#78909c" text-anchor="start" font-weight="normal" >scale</text><text x="720.0" y="162.0" font-size="13" fill="#78909c" text-anchor="start" font-weight="normal" >ក្រឡា</text><text x="820.0" y="162.0" font-size="13" fill="#78909c" text-anchor="start" font-weight="normal" >ទឹក (NDVI &lt; ០)</text><text x="620.0" y="198.0" font-size="15" fill="#263238" text-anchor="start" font-weight="normal" >៣០ ម</text><text x="720.0" y="198.0" font-size="15" fill="#263238" text-anchor="start" font-weight="bold" >៨ ០០០</text><text x="820.0" y="198.0" font-size="15" fill="#1565c0" text-anchor="start" font-weight="bold" >១៩%</text><text x="620.0" y="238.0" font-size="15" fill="#263238" text-anchor="start" font-weight="normal" >៩០ ម</text><text x="720.0" y="238.0" font-size="15" fill="#263238" text-anchor="start" font-weight="bold" >៨៩១</text><text x="820.0" y="238.0" font-size="15" fill="#1565c0" text-anchor="start" font-weight="bold" >១៩%</text><text x="620.0" y="278.0" font-size="15" fill="#263238" text-anchor="start" font-weight="normal" >៣០០ ម</text><text x="720.0" y="278.0" font-size="15" fill="#263238" text-anchor="start" font-weight="bold" >៨០</text><text x="820.0" y="278.0" font-size="15" fill="#1565c0" text-anchor="start" font-weight="bold" >២៤%</text><text x="620.0" y="318.0" font-size="15" fill="#263238" text-anchor="start" font-weight="normal" >៩០០ ម</text><text x="720.0" y="318.0" font-size="15" fill="#263238" text-anchor="start" font-weight="bold" >៩</text><text x="820.0" y="318.0" font-size="15" fill="#1565c0" text-anchor="start" font-weight="bold" >១១%</text></svg>