<svg xmlns="http://www.w3.org/2000/svg" xmlns:xlink="http://www.w3.org/1999/xlink" viewBox="0 0 1000 460" font-family="Battambang, Siemreap, sans-serif"><rect width="1000" height="460" fill="#ffffff"/><text x="24.0" y="38.0" font-size="24" fill="#2e7d32" text-anchor="start" font-weight="bold" class="ftitle">សន្ទស្សន៍ស្ថានភាពរុក្ខជាតិ (VCI)</text><text x="24.0" y="64.0" font-size="15" fill="#607d8b" text-anchor="start" font-weight="normal" class="fsub">NDVI ១៦ ថ្ងៃ · ២០ ឆ្នាំ និងឆ្នាំស្ងួត · ស៊េរីក្លែងធ្វើ (សម្រាប់បង្រៀន)</text><rect x="80.0" y="90.0" width="560.0" height="290.0" rx="0" fill="#fff" stroke="#cfd8dc" stroke-width="0.8" /><line x1="80.0" y1="343.8" x2="640.0" y2="343.8" stroke="#eceff1" stroke-width="0.8"/><text x="74.0" y="347.8" font-size="12" fill="#546e7a" text-anchor="end" font-weight="normal" >០.២</text><line x1="80.0" y1="271.2" x2="640.0" y2="271.2" stroke="#eceff1" stroke-width="0.8"/><text x="74.0" y="275.2" font-size="12" fill="#546e7a" text-anchor="end" font-weight="normal" >០.៤</text><line x1="80.0" y1="198.8" x2="640.0" y2="198.8" stroke="#eceff1" stroke-width="0.8"/><text x="74.0" y="202.8" font-size="12" fill="#546e7a" text-anchor="end" font-weight="normal" >០.៦</text><line x1="80.0" y1="126.2" x2="640.0" y2="126.2" stroke="#eceff1" stroke-width="0.8"/><text x="74.0" y="130.2" font-size="12" fill="#546e7a" text-anchor="end" font-weight="normal" >០.៨</text><path d="M80.0 276.5 L104.6 285.9 L129.2 291.4 L153.8 281.2 L178.5 272.0 L203.1 285.3 L227.7 289.2 L252.3 266.2 L276.9 286.2 L301.5 264.0 L326.2 287.9 L350.8 296.8 L375.4 282.2 L400.0 309.7 L424.6 281.8 L449.2 276.9 L473.8 215.2 L498.5 167.1 L523.1 160.6 L547.7 176.0 L572.3 188.8 L596.9 225.4 L621.5 246.7" fill="none" stroke="#c62828" stroke-width="3" opacity="1" /><text x="34.0" y="235.0" font-size="14" fill="#263238" text-anchor="middle" font-weight="normal" transform="rotate(-90 34 235.0)">NDVI</text><path d="M80.0 252.4 L104.6 252.7 L129.2 268.1 L153.8 254.3 L178.5 244.7 L203.1 257.3 L227.7 264.7 L252.3 236.6 L276.9 267.7 L301.5 229.0 L326.2 261.9 L350.8 257.0 L375.4 252.1 L400.0 243.0 L424.6 232.1 L449.2 206.1 L473.8 167.7 L498.5 127.8 L523.1 123.4 L547.7 144.3 L572.3 157.6 L596.9 200.2 L621.5 213.9 L621.5 295.8 L596.9 262.9 L572.3 234.0 L547.7 217.9 L523.1 199.4 L498.5 193.2 L473.8 231.1 L449.2 287.4 L424.6 287.7 L400.0 326.1 L375.4 298.1 L350.8 332.7 L326.2 320.0 L301.5 313.4 L276.9 313.5 L252.3 310.6 L227.7 326.0 L203.1 327.3 L178.5 313.0 L153.8 321.5 L129.2 326.4 L104.6 335.7 L80.0 312.8Z" fill="#43a047" stroke="none" stroke-width="0" opacity="0.2" /><text x="101.5" y="400.0" font-size="12" fill="#546e7a" text-anchor="middle" font-weight="normal" >មក</text><text x="149.2" y="400.0" font-size="12" fill="#546e7a" text-anchor="middle" font-weight="normal" >កម</text><text x="192.3" y="400.0" font-size="12" fill="#546e7a" text-anchor="middle" font-weight="normal" >មន</text><text x="240.0" y="400.0" font-size="12" fill="#546e7a" text-anchor="middle" font-weight="normal" >មស</text><text x="286.2" y="400.0" font-size="12" fill="#546e7a" text-anchor="middle" font-weight="normal" >ឧស</text><text x="333.8" y="400.0" font-size="12" fill="#546e7a" text-anchor="middle" font-weight="normal" >មថ</text><text x="380.0" y="400.0" font-size="12" fill="#546e7a" text-anchor="middle" font-weight="normal" >កក</text><text x="427.7" y="400.0" font-size="12" fill="#546e7a" text-anchor="middle" font-weight="normal" >សហ</text><text x="475.4" y="400.0" font-size="12" fill="#546e7a" text-anchor="middle" font-weight="normal" >កញ</text><text x="521.5" y="400.0" font-size="12" fill="#546e7a" text-anchor="middle" font-weight="normal" >តល</text><text x="569.2" y="400.0" font-size="12" fill="#546e7a" text-anchor="middle" font-weight="normal" >វច</text><text x="615.4" y="400.0" font-size="12" fill="#546e7a" text-anchor="middle" font-weight="normal" >ធន</text><circle cx="424.6" cy="281.8" r="7.00" fill="#c62828" stroke="#fff" stroke-width="2" opacity="1"/><rect x="680.0" y="100.0" width="290.0" height="250.0" rx="10" fill="#fafafa" stroke="#cfd8dc" stroke-width="1" /><text x="700.0" y="135.0" font-size="15" fill="#263238" text-anchor="start" font-weight="bold" >VCI = (NDVI − NDVImin)</text><text x="760.0" y="162.0" font-size="14" fill="#263238" text-anchor="start" font-weight="normal" >/ (NDVImax − NDVImin) × ១០០</text><text x="700.0" y="205.0" font-size="16" fill="#c62828" text-anchor="start" font-weight="bold" >ទាបបំផុត៖ VCI ≈ ១១</text><text x="700.0" y="240.0" font-size="14" fill="#263238" text-anchor="start" font-weight="normal" >&lt; ៤០ = រងគ្រោះរាំងស្ងួត</text><text x="700.0" y="268.0" font-size="14" fill="#263238" text-anchor="start" font-weight="normal" >&lt; ២០ = ធ្ងន់ធ្ងរ</text><text x="700.0" y="310.0" font-size="13" fill="#607d8b" text-anchor="start" font-weight="normal" >ផ្ទៃបៃតង = min–max ២០ ឆ្នាំ</text></svg>