<svg xmlns="http://www.w3.org/2000/svg" xmlns:xlink="http://www.w3.org/1999/xlink" viewBox="0 0 1000 380" font-family="Battambang, Siemreap, sans-serif"><defs><marker id="arrow" viewBox="0 0 10 10" refX="9" refY="5" markerWidth="7" markerHeight="7" orient="auto-start-reverse"><path d="M0 0L10 5L0 10z" fill="context-stroke"/></marker></defs><rect width="1000" height="380" fill="#ffffff"/><text x="24.0" y="38.0" font-size="24" fill="#2e7d32" text-anchor="start" font-weight="bold" class="ftitle">លំហូរការវិភាគការបាត់បង់ព្រៃ</text><rect x="25.0" y="120.0" width="175.0" height="120.0" rx="12" fill="#2e7d32" stroke="none" stroke-width="1" /><text x="112.5" y="176.0" font-size="17" fill="#fff" text-anchor="middle" font-weight="bold" >ព្រៃ ២០០០</text><text x="112.5" y="200.0" font-size="13" fill="#fff" text-anchor="middle" font-weight="normal" >treecover2000 ≥ កម្រិត</text><line x1="202.0" y1="180.0" x2="218.0" y2="180.0" stroke="#607d8b" stroke-width="2" marker-end="url(#arrow)"/><rect x="220.0" y="120.0" width="175.0" height="120.0" rx="12" fill="#c62828" stroke="none" stroke-width="1" /><text x="307.5" y="176.0" font-size="17" fill="#fff" text-anchor="middle" font-weight="bold" >បាត់បង់</text><text x="307.5" y="200.0" font-size="13" fill="#fff" text-anchor="middle" font-weight="normal" >loss · lossyear</text><line x1="397.0" y1="180.0" x2="413.0" y2="180.0" stroke="#607d8b" stroke-width="2" marker-end="url(#arrow)"/><rect x="415.0" y="120.0" width="175.0" height="120.0" rx="12" fill="#1565c0" stroke="none" stroke-width="1" /><text x="502.5" y="176.0" font-size="17" fill="#fff" text-anchor="middle" font-weight="bold" >តំបន់</text><text x="502.5" y="200.0" font-size="13" fill="#fff" text-anchor="middle" font-weight="normal" >ខេត្ត · WDPA · buffer</text><line x1="592.0" y1="180.0" x2="608.0" y2="180.0" stroke="#607d8b" stroke-width="2" marker-end="url(#arrow)"/><rect x="610.0" y="120.0" width="175.0" height="120.0" rx="12" fill="#6a1b9a" stroke="none" stroke-width="1" /><text x="697.5" y="176.0" font-size="17" fill="#fff" text-anchor="middle" font-weight="bold" >ស្ថិតិ</text><text x="697.5" y="200.0" font-size="13" fill="#fff" text-anchor="middle" font-weight="normal" >ផ្ទៃ · អត្រា · តាមឆ្នាំ</text><line x1="787.0" y1="180.0" x2="803.0" y2="180.0" stroke="#607d8b" stroke-width="2" marker-end="url(#arrow)"/><rect x="805.0" y="120.0" width="175.0" height="120.0" rx="12" fill="#ef6c00" stroke="none" stroke-width="1" /><text x="892.5" y="176.0" font-size="17" fill="#fff" text-anchor="middle" font-weight="bold" >ផ្ទៀងផ្ទាត់</text><text x="892.5" y="200.0" font-size="13" fill="#fff" text-anchor="middle" font-weight="normal" >Sentinel-2 · Google Earth</text><text x="500.0" y="300.0" font-size="15" fill="#607d8b" text-anchor="middle" font-weight="normal" >រាយការណ៍៖ កំណែ Hansen · កម្រិតគម្របដើមឈើ · ឯកតាផ្ទៃ (pixelArea) · ដែនកំណត់</text></svg>