<svg xmlns="http://www.w3.org/2000/svg" xmlns:xlink="http://www.w3.org/1999/xlink" viewBox="0 0 1000 470" font-family="Battambang, Siemreap, sans-serif"><rect width="1000" height="470" fill="#ffffff"/><text x="24.0" y="38.0" font-size="24" fill="#2e7d32" text-anchor="start" font-weight="bold" class="ftitle">ក្បួនសាមញ្ញ៖ អប្បបរមា និងការឡើងវិញ</text><text x="24.0" y="64.0" font-size="15" fill="#607d8b" text-anchor="start" font-weight="normal" class="fsub">ក្រឡាក្លែងធ្វើ ៣០០ · មធ្យមរំកិល ១២ ថ្ងៃ · VH អប្បបរមា (មិថុនា–កញ្ញា) និងការកើនឡើងបន្ទាប់ · ស៊េរីក្លែងធ្វើតាមលំនាំ Sentinel-1 VH លើស្រែកម្ពុជា (សម្រាប់បង្រៀន)</text><rect x="90.0" y="90.0" width="560.0" height="320.0" rx="0" fill="#fff" stroke="#cfd8dc" stroke-width="0.8" /><line x1="90.0" y1="410.0" x2="90.0" y2="415.0" stroke="#263238" stroke-width="0.8"/><text x="90.0" y="430.0" font-size="12" fill="#546e7a" text-anchor="middle" font-weight="normal" >-៣០</text><line x1="217.3" y1="410.0" x2="217.3" y2="415.0" stroke="#263238" stroke-width="0.8"/><text x="217.3" y="430.0" font-size="12" fill="#546e7a" text-anchor="middle" font-weight="normal" >-២៥</text><line x1="344.5" y1="410.0" x2="344.5" y2="415.0" stroke="#263238" stroke-width="0.8"/><text x="344.5" y="430.0" font-size="12" fill="#546e7a" text-anchor="middle" font-weight="normal" >-២០</text><line x1="471.8" y1="410.0" x2="471.8" y2="415.0" stroke="#263238" stroke-width="0.8"/><text x="471.8" y="430.0" font-size="12" fill="#546e7a" text-anchor="middle" font-weight="normal" >-១៥</text><line x1="599.1" y1="410.0" x2="599.1" y2="415.0" stroke="#263238" stroke-width="0.8"/><text x="599.1" y="430.0" font-size="12" fill="#546e7a" text-anchor="middle" font-weight="normal" >-១០</text><line x1="90.0" y1="410.0" x2="650.0" y2="410.0" stroke="#eceff1" stroke-width="0.8"/><text x="84.0" y="414.0" font-size="12" fill="#546e7a" text-anchor="end" font-weight="normal" >០</text><line x1="90.0" y1="318.6" x2="650.0" y2="318.6" stroke="#eceff1" stroke-width="0.8"/><text x="84.0" y="322.6" font-size="12" fill="#546e7a" text-anchor="end" font-weight="normal" >៤</text><line x1="90.0" y1="227.1" x2="650.0" y2="227.1" stroke="#eceff1" stroke-width="0.8"/><text x="84.0" y="231.1" font-size="12" fill="#546e7a" text-anchor="end" font-weight="normal" >៨</text><line x1="90.0" y1="135.7" x2="650.0" y2="135.7" stroke="#eceff1" stroke-width="0.8"/><text x="84.0" y="139.7" font-size="12" fill="#546e7a" text-anchor="end" font-weight="normal" >១២</text><text x="370.0" y="452.0" font-size="14" fill="#263238" text-anchor="middle" font-weight="normal" >VH អប្បបរមា (dB)</text><text x="44.0" y="250.0" font-size="14" fill="#263238" text-anchor="middle" font-weight="normal" transform="rotate(-90 44 250.0)">ការកើនឡើងបន្ទាប់ (dB)</text><rect x="90.0" y="90.0" width="280.0" height="205.7" rx="0" fill="#2e7d32" stroke="none" stroke-width="0" opacity=".08"/><line x1="370.0" y1="410.0" x2="370.0" y2="90.0" stroke="#2e7d32" stroke-width="2" stroke-dasharray="6 4"/><line x1="90.0" y1="295.7" x2="650.0" y2="295.7" stroke="#2e7d32" stroke-width="2" stroke-dasharray="6 4"/><circle cx="225.1" cy="112.5" r="3.50" fill="#2e7d32" stroke="none" stroke-width="1" opacity="0.8"/><circle cx="252.4" cy="118.3" r="3.50" fill="#2e7d32" stroke="none" stroke-width="1" opacity="0.8"/><circle cx="284.8" cy="266.3" r="3.50" fill="#2e7d32" stroke="none" stroke-width="1" opacity="0.8"/><circle cx="269.2" cy="244.3" r="3.50" fill="#2e7d32" stroke="none" stroke-width="1" opacity="0.8"/><circle cx="288.2" cy="181.9" r="3.50" fill="#2e7d32" stroke="none" stroke-width="1" opacity="0.8"/><circle cx="274.9" cy="198.1" r="3.50" fill="#2e7d32" stroke="none" stroke-width="1" opacity="0.8"/><circle cx="214.8" cy="154.4" r="3.50" fill="#2e7d32" stroke="none" stroke-width="1" opacity="0.8"/><circle cx="322.0" cy="211.1" r="3.50" fill="#2e7d32" stroke="none" stroke-width="1" opacity="0.8"/><circle cx="240.3" cy="120.2" r="3.50" fill="#2e7d32" stroke="none" stroke-width="1" opacity="0.8"/><circle cx="288.8" cy="145.9" r="3.50" fill="#2e7d32" stroke="none" stroke-width="1" opacity="0.8"/><circle cx="299.3" cy="191.1" r="3.50" fill="#2e7d32" stroke="none" stroke-width="1" opacity="0.8"/><circle cx="289.1" cy="167.8" r="3.50" fill="#2e7d32" stroke="none" stroke-width="1" opacity="0.8"/><circle cx="310.4" cy="249.1" r="3.50" fill="#2e7d32" stroke="none" stroke-width="1" opacity="0.8"/><circle cx="378.8" cy="232.3" r="3.50" fill="#2e7d32" stroke="none" stroke-width="1" opacity="0.8"/><circle cx="401.4" cy="127.8" r="3.50" fill="#2e7d32" stroke="none" stroke-width="1" opacity="0.8"/><circle cx="354.4" cy="229.4" r="3.50" fill="#2e7d32" stroke="none" stroke-width="1" opacity="0.8"/><circle cx="227.6" cy="90.0" r="3.50" fill="#2e7d32" stroke="none" stroke-width="1" opacity="0.8"/><circle cx="430.8" cy="271.0" r="3.50" fill="#2e7d32" stroke="none" stroke-width="1" opacity="0.8"/><circle cx="273.9" cy="222.4" r="3.50" fill="#2e7d32" stroke="none" stroke-width="1" opacity="0.8"/><circle cx="338.2" cy="258.6" r="3.50" fill="#2e7d32" stroke="none" stroke-width="1" opacity="0.8"/><circle cx="279.1" cy="127.2" r="3.50" fill="#2e7d32" stroke="none" stroke-width="1" opacity="0.8"/><circle cx="407.9" cy="275.7" r="3.50" fill="#2e7d32" stroke="none" stroke-width="1" opacity="0.8"/><circle cx="210.9" cy="114.9" r="3.50" fill="#2e7d32" stroke="none" stroke-width="1" opacity="0.8"/><circle cx="261.5" cy="138.8" r="3.50" fill="#2e7d32" stroke="none" stroke-width="1" opacity="0.8"/><circle cx="218.5" cy="90.0" r="3.50" fill="#2e7d32" stroke="none" stroke-width="1" opacity="0.8"/><circle cx="317.1" cy="248.5" r="3.50" fill="#2e7d32" stroke="none" stroke-width="1" opacity="0.8"/><circle cx="237.9" cy="240.8" r="3.50" fill="#2e7d32" stroke="none" stroke-width="1" opacity="0.8"/><circle cx="321.9" cy="203.9" r="3.50" fill="#2e7d32" stroke="none" stroke-width="1" opacity="0.8"/><circle cx="318.3" cy="268.6" r="3.50" fill="#2e7d32" stroke="none" stroke-width="1" opacity="0.8"/><circle cx="292.6" cy="143.9" r="3.50" fill="#2e7d32" stroke="none" stroke-width="1" opacity="0.8"/><circle cx="201.8" cy="135.5" r="3.50" fill="#2e7d32" stroke="none" stroke-width="1" opacity="0.8"/><circle cx="328.6" cy="146.6" r="3.50" fill="#2e7d32" stroke="none" stroke-width="1" opacity="0.8"/><circle cx="286.7" cy="208.2" r="3.50" fill="#2e7d32" stroke="none" stroke-width="1" opacity="0.8"/><circle cx="382.3" cy="255.3" r="3.50" fill="#2e7d32" stroke="none" stroke-width="1" opacity="0.8"/><circle cx="277.2" cy="211.7" r="3.50" fill="#2e7d32" stroke="none" stroke-width="1" opacity="0.8"/><circle cx="318.3" cy="280.3" r="3.50" fill="#2e7d32" stroke="none" stroke-width="1" opacity="0.8"/><circle cx="159.9" cy="91.4" r="3.50" fill="#2e7d32" stroke="none" stroke-width="1" opacity="0.8"/><circle cx="383.7" cy="240.2" r="3.50" fill="#2e7d32" stroke="none" stroke-width="1" opacity="0.8"/><circle cx="314.0" cy="215.1" r="3.50" fill="#2e7d32" stroke="none" stroke-width="1" opacity="0.8"/><circle cx="302.6" cy="193.3" r="3.50" fill="#2e7d32" stroke="none" stroke-width="1" opacity="0.8"/><circle cx="352.9" cy="285.7" r="3.50" fill="#2e7d32" stroke="none" stroke-width="1" opacity="0.8"/><circle cx="327.5" cy="100.7" r="3.50" fill="#2e7d32" stroke="none" stroke-width="1" opacity="0.8"/><circle cx="281.7" cy="260.4" r="3.50" fill="#2e7d32" stroke="none" stroke-width="1" opacity="0.8"/><circle cx="205.6" cy="156.1" r="3.50" fill="#2e7d32" stroke="none" stroke-width="1" opacity="0.8"/><circle cx="347.7" cy="233.2" r="3.50" fill="#2e7d32" stroke="none" stroke-width="1" opacity="0.8"/><circle cx="323.3" cy="234.0" r="3.50" fill="#2e7d32" stroke="none" stroke-width="1" opacity="0.8"/><circle cx="281.7" cy="196.8" r="3.50" fill="#2e7d32" stroke="none" stroke-width="1" opacity="0.8"/><circle cx="435.0" cy="283.2" r="3.50" fill="#2e7d32" stroke="none" stroke-width="1" opacity="0.8"/><circle cx="182.7" cy="119.0" r="3.50" fill="#2e7d32" stroke="none" stroke-width="1" opacity="0.8"/><circle cx="190.0" cy="121.8" r="3.50" fill="#2e7d32" stroke="none" stroke-width="1" opacity="0.8"/><circle cx="242.9" cy="108.5" r="3.50" fill="#2e7d32" stroke="none" stroke-width="1" opacity="0.8"/><circle cx="202.1" cy="132.6" r="3.50" fill="#2e7d32" stroke="none" stroke-width="1" opacity="0.8"/><circle cx="267.5" cy="171.6" r="3.50" fill="#2e7d32" stroke="none" stroke-width="1" opacity="0.8"/><circle cx="287.7" cy="252.3" r="3.50" fill="#2e7d32" stroke="none" stroke-width="1" opacity="0.8"/><circle cx="286.0" cy="99.9" r="3.50" fill="#2e7d32" stroke="none" stroke-width="1" opacity="0.8"/><circle cx="329.1" cy="197.0" r="3.50" fill="#2e7d32" stroke="none" stroke-width="1" opacity="0.8"/><circle cx="279.1" cy="262.2" r="3.50" fill="#2e7d32" stroke="none" stroke-width="1" opacity="0.8"/><circle cx="267.9" cy="119.0" r="3.50" fill="#2e7d32" stroke="none" stroke-width="1" opacity="0.8"/><circle cx="400.1" cy="244.6" r="3.50" fill="#2e7d32" stroke="none" stroke-width="1" opacity="0.8"/><circle cx="242.3" cy="214.2" r="3.50" fill="#2e7d32" stroke="none" stroke-width="1" opacity="0.8"/><circle cx="427.2" cy="361.8" r="3.50" fill="#ff9800" stroke="none" stroke-width="1" opacity="0.8"/><circle cx="365.8" cy="352.7" r="3.50" fill="#ff9800" stroke="none" stroke-width="1" opacity="0.8"/><circle cx="416.4" cy="323.6" r="3.50" fill="#ff9800" stroke="none" stroke-width="1" opacity="0.8"/><circle cx="371.4" cy="318.8" r="3.50" fill="#ff9800" stroke="none" stroke-width="1" opacity="0.8"/><circle cx="392.3" cy="322.2" r="3.50" fill="#ff9800" stroke="none" stroke-width="1" opacity="0.8"/><circle cx="443.7" cy="324.2" r="3.50" fill="#ff9800" stroke="none" stroke-width="1" opacity="0.8"/><circle cx="391.6" cy="350.2" r="3.50" fill="#ff9800" stroke="none" stroke-width="1" opacity="0.8"/><circle cx="500.4" cy="342.7" r="3.50" fill="#ff9800" stroke="none" stroke-width="1" opacity="0.8"/><circle cx="321.9" cy="327.4" r="3.50" fill="#ff9800" stroke="none" stroke-width="1" opacity="0.8"/><circle cx="469.9" cy="344.8" r="3.50" fill="#ff9800" stroke="none" stroke-width="1" opacity="0.8"/><circle cx="405.2" cy="353.9" r="3.50" fill="#ff9800" stroke="none" stroke-width="1" opacity="0.8"/><circle cx="427.8" cy="322.4" r="3.50" fill="#ff9800" stroke="none" stroke-width="1" opacity="0.8"/><circle cx="380.7" cy="341.7" r="3.50" fill="#ff9800" stroke="none" stroke-width="1" opacity="0.8"/><circle cx="306.1" cy="355.4" r="3.50" fill="#ff9800" stroke="none" stroke-width="1" opacity="0.8"/><circle cx="389.6" cy="338.9" r="3.50" fill="#ff9800" stroke="none" stroke-width="1" opacity="0.8"/><circle cx="461.2" cy="350.8" r="3.50" fill="#ff9800" stroke="none" stroke-width="1" opacity="0.8"/><circle cx="357.7" cy="337.5" r="3.50" fill="#ff9800" stroke="none" stroke-width="1" opacity="0.8"/><circle cx="458.3" cy="341.4" r="3.50" fill="#ff9800" stroke="none" stroke-width="1" opacity="0.8"/><circle cx="377.7" cy="352.4" r="3.50" fill="#ff9800" stroke="none" stroke-width="1" opacity="0.8"/><circle cx="449.7" cy="355.6" r="3.50" fill="#ff9800" stroke="none" stroke-width="1" opacity="0.8"/><circle cx="393.7" cy="350.5" r="3.50" fill="#ff9800" stroke="none" stroke-width="1" opacity="0.8"/><circle cx="329.6" cy="345.7" r="3.50" fill="#ff9800" stroke="none" stroke-width="1" opacity="0.8"/><circle cx="386.7" cy="345.6" r="3.50" fill="#ff9800" stroke="none" stroke-width="1" opacity="0.8"/><circle cx="347.1" cy="322.3" r="3.50" fill="#ff9800" stroke="none" stroke-width="1" opacity="0.8"/><circle cx="442.7" cy="367.9" r="3.50" fill="#ff9800" stroke="none" stroke-width="1" opacity="0.8"/><circle cx="298.9" cy="333.3" r="3.50" fill="#ff9800" stroke="none" stroke-width="1" opacity="0.8"/><circle cx="430.6" cy="354.8" r="3.50" fill="#ff9800" stroke="none" stroke-width="1" opacity="0.8"/><circle cx="419.2" cy="323.4" r="3.50" fill="#ff9800" stroke="none" stroke-width="1" opacity="0.8"/><circle cx="487.6" cy="328.0" r="3.50" fill="#ff9800" stroke="none" stroke-width="1" opacity="0.8"/><circle cx="310.4" cy="339.0" r="3.50" fill="#ff9800" stroke="none" stroke-width="1" opacity="0.8"/><circle cx="471.8" cy="348.3" r="3.50" fill="#ff9800" stroke="none" stroke-width="1" opacity="0.8"/><circle cx="411.2" cy="330.5" r="3.50" fill="#ff9800" stroke="none" stroke-width="1" opacity="0.8"/><circle cx="348.9" cy="353.4" r="3.50" fill="#ff9800" stroke="none" stroke-width="1" opacity="0.8"/><circle cx="388.0" cy="358.6" r="3.50" fill="#ff9800" stroke="none" stroke-width="1" opacity="0.8"/><circle cx="327.6" cy="341.3" r="3.50" fill="#ff9800" stroke="none" stroke-width="1" opacity="0.8"/><circle cx="410.0" cy="315.7" r="3.50" fill="#ff9800" stroke="none" stroke-width="1" opacity="0.8"/><circle cx="440.3" cy="314.3" r="3.50" fill="#ff9800" stroke="none" stroke-width="1" opacity="0.8"/><circle cx="523.1" cy="346.3" r="3.50" fill="#ff9800" stroke="none" stroke-width="1" opacity="0.8"/><circle cx="405.2" cy="356.7" r="3.50" fill="#ff9800" stroke="none" stroke-width="1" opacity="0.8"/><circle cx="347.7" cy="323.5" r="3.50" fill="#ff9800" stroke="none" stroke-width="1" opacity="0.8"/><circle cx="491.1" cy="331.8" r="3.50" fill="#ff9800" stroke="none" stroke-width="1" opacity="0.8"/><circle cx="397.1" cy="338.8" r="3.50" fill="#ff9800" stroke="none" stroke-width="1" opacity="0.8"/><circle cx="322.1" cy="340.7" r="3.50" fill="#ff9800" stroke="none" stroke-width="1" opacity="0.8"/><circle cx="521.0" cy="322.9" r="3.50" fill="#ff9800" stroke="none" stroke-width="1" opacity="0.8"/><circle cx="401.4" cy="335.8" r="3.50" fill="#ff9800" stroke="none" stroke-width="1" opacity="0.8"/><circle cx="421.7" cy="335.4" r="3.50" fill="#ff9800" stroke="none" stroke-width="1" opacity="0.8"/><circle cx="439.0" cy="335.7" r="3.50" fill="#ff9800" stroke="none" stroke-width="1" opacity="0.8"/><circle cx="411.1" cy="317.8" r="3.50" fill="#ff9800" stroke="none" stroke-width="1" opacity="0.8"/><circle cx="489.7" cy="346.0" r="3.50" fill="#ff9800" stroke="none" stroke-width="1" opacity="0.8"/><circle cx="445.1" cy="353.5" r="3.50" fill="#ff9800" stroke="none" stroke-width="1" opacity="0.8"/><circle cx="457.3" cy="337.1" r="3.50" fill="#ff9800" stroke="none" stroke-width="1" opacity="0.8"/><circle cx="417.3" cy="358.4" r="3.50" fill="#ff9800" stroke="none" stroke-width="1" opacity="0.8"/><circle cx="409.8" cy="356.5" r="3.50" fill="#ff9800" stroke="none" stroke-width="1" opacity="0.8"/><circle cx="378.0" cy="329.7" r="3.50" fill="#ff9800" stroke="none" stroke-width="1" opacity="0.8"/><circle cx="387.3" cy="357.6" r="3.50" fill="#ff9800" stroke="none" stroke-width="1" opacity="0.8"/><circle cx="374.3" cy="363.8" r="3.50" fill="#ff9800" stroke="none" stroke-width="1" opacity="0.8"/><circle cx="412.5" cy="350.9" r="3.50" fill="#ff9800" stroke="none" stroke-width="1" opacity="0.8"/><circle cx="487.6" cy="365.3" r="3.50" fill="#ff9800" stroke="none" stroke-width="1" opacity="0.8"/><circle cx="410.7" cy="367.5" r="3.50" fill="#ff9800" stroke="none" stroke-width="1" opacity="0.8"/><circle cx="432.1" cy="337.7" r="3.50" fill="#ff9800" stroke="none" stroke-width="1" opacity="0.8"/><circle cx="511.3" cy="362.7" r="3.50" fill="#1b5e20" stroke="none" stroke-width="1" opacity="0.8"/><circle cx="479.6" cy="373.1" r="3.50" fill="#1b5e20" stroke="none" stroke-width="1" opacity="0.8"/><circle cx="543.1" cy="366.2" r="3.50" fill="#1b5e20" stroke="none" stroke-width="1" opacity="0.8"/><circle cx="573.1" cy="370.9" r="3.50" fill="#1b5e20" stroke="none" stroke-width="1" opacity="0.8"/><circle cx="491.2" cy="377.4" r="3.50" fill="#1b5e20" stroke="none" stroke-width="1" opacity="0.8"/><circle cx="507.4" cy="373.0" r="3.50" fill="#1b5e20" stroke="none" stroke-width="1" opacity="0.8"/><circle cx="452.9" cy="371.5" r="3.50" fill="#1b5e20" stroke="none" stroke-width="1" opacity="0.8"/><circle cx="512.1" cy="364.9" r="3.50" fill="#1b5e20" stroke="none" stroke-width="1" opacity="0.8"/><circle cx="459.1" cy="363.2" r="3.50" fill="#1b5e20" stroke="none" stroke-width="1" opacity="0.8"/><circle cx="524.8" cy="363.8" r="3.50" fill="#1b5e20" stroke="none" stroke-width="1" opacity="0.8"/><circle cx="408.4" cy="353.3" r="3.50" fill="#1b5e20" stroke="none" stroke-width="1" opacity="0.8"/><circle cx="521.3" cy="356.9" r="3.50" fill="#1b5e20" stroke="none" stroke-width="1" opacity="0.8"/><circle cx="525.9" cy="377.9" r="3.50" fill="#1b5e20" stroke="none" stroke-width="1" opacity="0.8"/><circle cx="475.3" cy="369.2" r="3.50" fill="#1b5e20" stroke="none" stroke-width="1" opacity="0.8"/><circle cx="577.3" cy="366.4" r="3.50" fill="#1b5e20" stroke="none" stroke-width="1" opacity="0.8"/><circle cx="486.6" cy="363.7" r="3.50" fill="#1b5e20" stroke="none" stroke-width="1" opacity="0.8"/><circle cx="492.9" cy="355.7" r="3.50" fill="#1b5e20" stroke="none" stroke-width="1" opacity="0.8"/><circle cx="459.9" cy="364.4" r="3.50" fill="#1b5e20" stroke="none" stroke-width="1" opacity="0.8"/><circle cx="539.3" cy="375.7" r="3.50" fill="#1b5e20" stroke="none" stroke-width="1" opacity="0.8"/><circle cx="514.7" cy="355.6" r="3.50" fill="#1b5e20" stroke="none" stroke-width="1" opacity="0.8"/><circle cx="507.9" cy="355.6" r="3.50" fill="#1b5e20" stroke="none" stroke-width="1" opacity="0.8"/><circle cx="521.5" cy="369.3" r="3.50" fill="#1b5e20" stroke="none" stroke-width="1" opacity="0.8"/><circle cx="524.2" cy="365.5" r="3.50" fill="#1b5e20" stroke="none" stroke-width="1" opacity="0.8"/><circle cx="501.4" cy="365.0" r="3.50" fill="#1b5e20" stroke="none" stroke-width="1" opacity="0.8"/><circle cx="551.1" cy="372.0" r="3.50" fill="#1b5e20" stroke="none" stroke-width="1" opacity="0.8"/><circle cx="492.1" cy="351.0" r="3.50" fill="#1b5e20" stroke="none" stroke-width="1" opacity="0.8"/><circle cx="514.1" cy="347.7" r="3.50" fill="#1b5e20" stroke="none" stroke-width="1" opacity="0.8"/><circle cx="434.0" cy="358.7" r="3.50" fill="#1b5e20" stroke="none" stroke-width="1" opacity="0.8"/><circle cx="508.7" cy="370.6" r="3.50" fill="#1b5e20" stroke="none" stroke-width="1" opacity="0.8"/><circle cx="514.3" cy="373.6" r="3.50" fill="#1b5e20" stroke="none" stroke-width="1" opacity="0.8"/><circle cx="400.1" cy="368.7" r="3.50" fill="#1b5e20" stroke="none" stroke-width="1" opacity="0.8"/><circle cx="501.8" cy="357.3" r="3.50" fill="#1b5e20" stroke="none" stroke-width="1" opacity="0.8"/><circle cx="440.8" cy="356.7" r="3.50" fill="#1b5e20" stroke="none" stroke-width="1" opacity="0.8"/><circle cx="476.2" cy="355.0" r="3.50" fill="#1b5e20" stroke="none" stroke-width="1" opacity="0.8"/><circle cx="447.4" cy="356.3" r="3.50" fill="#1b5e20" stroke="none" stroke-width="1" opacity="0.8"/><circle cx="510.1" cy="378.7" r="3.50" fill="#1b5e20" stroke="none" stroke-width="1" opacity="0.8"/><circle cx="465.7" cy="359.6" r="3.50" fill="#1b5e20" stroke="none" stroke-width="1" opacity="0.8"/><circle cx="504.8" cy="368.3" r="3.50" fill="#1b5e20" stroke="none" stroke-width="1" opacity="0.8"/><circle cx="468.0" cy="369.9" r="3.50" fill="#1b5e20" stroke="none" stroke-width="1" opacity="0.8"/><circle cx="468.9" cy="379.0" r="3.50" fill="#1b5e20" stroke="none" stroke-width="1" opacity="0.8"/><circle cx="523.0" cy="359.4" r="3.50" fill="#1b5e20" stroke="none" stroke-width="1" opacity="0.8"/><circle cx="557.7" cy="374.5" r="3.50" fill="#1b5e20" stroke="none" stroke-width="1" opacity="0.8"/><circle cx="528.0" cy="371.6" r="3.50" fill="#1b5e20" stroke="none" stroke-width="1" opacity="0.8"/><circle cx="411.6" cy="370.5" r="3.50" fill="#1b5e20" stroke="none" stroke-width="1" opacity="0.8"/><circle cx="448.4" cy="360.8" r="3.50" fill="#1b5e20" stroke="none" stroke-width="1" opacity="0.8"/><circle cx="521.8" cy="371.2" r="3.50" fill="#1b5e20" stroke="none" stroke-width="1" opacity="0.8"/><circle cx="417.4" cy="358.3" r="3.50" fill="#1b5e20" stroke="none" stroke-width="1" opacity="0.8"/><circle cx="554.2" cy="355.5" r="3.50" fill="#1b5e20" stroke="none" stroke-width="1" opacity="0.8"/><circle cx="525.4" cy="371.4" r="3.50" fill="#1b5e20" stroke="none" stroke-width="1" opacity="0.8"/><circle cx="386.4" cy="357.5" r="3.50" fill="#1b5e20" stroke="none" stroke-width="1" opacity="0.8"/><circle cx="525.6" cy="368.8" r="3.50" fill="#1b5e20" stroke="none" stroke-width="1" opacity="0.8"/><circle cx="502.6" cy="368.0" r="3.50" fill="#1b5e20" stroke="none" stroke-width="1" opacity="0.8"/><circle cx="539.4" cy="358.4" r="3.50" fill="#1b5e20" stroke="none" stroke-width="1" opacity="0.8"/><circle cx="492.8" cy="362.4" r="3.50" fill="#1b5e20" stroke="none" stroke-width="1" opacity="0.8"/><circle cx="497.3" cy="357.6" r="3.50" fill="#1b5e20" stroke="none" stroke-width="1" opacity="0.8"/><circle cx="494.8" cy="378.5" r="3.50" fill="#1b5e20" stroke="none" stroke-width="1" opacity="0.8"/><circle cx="509.1" cy="360.6" r="3.50" fill="#1b5e20" stroke="none" stroke-width="1" opacity="0.8"/><circle cx="499.9" cy="364.6" r="3.50" fill="#1b5e20" stroke="none" stroke-width="1" opacity="0.8"/><circle cx="455.0" cy="360.6" r="3.50" fill="#1b5e20" stroke="none" stroke-width="1" opacity="0.8"/><circle cx="613.3" cy="363.2" r="3.50" fill="#1b5e20" stroke="none" stroke-width="1" opacity="0.8"/><circle cx="642.4" cy="348.5" r="3.50" fill="#e53935" stroke="none" stroke-width="1" opacity="0.8"/><circle cx="619.2" cy="357.4" r="3.50" fill="#e53935" stroke="none" stroke-width="1" opacity="0.8"/><circle cx="610.5" cy="362.3" r="3.50" fill="#e53935" stroke="none" stroke-width="1" opacity="0.8"/><circle cx="642.4" cy="354.5" r="3.50" fill="#e53935" stroke="none" stroke-width="1" opacity="0.8"/><circle cx="638.3" cy="350.0" r="3.50" fill="#e53935" stroke="none" stroke-width="1" opacity="0.8"/><circle cx="605.0" cy="364.6" r="3.50" fill="#e53935" stroke="none" stroke-width="1" opacity="0.8"/><circle cx="620.8" cy="356.9" r="3.50" fill="#e53935" stroke="none" stroke-width="1" opacity="0.8"/><circle cx="642.4" cy="367.2" r="3.50" fill="#e53935" stroke="none" stroke-width="1" opacity="0.8"/><circle cx="538.4" cy="353.0" r="3.50" fill="#e53935" stroke="none" stroke-width="1" opacity="0.8"/><circle cx="616.5" cy="373.3" r="3.50" fill="#e53935" stroke="none" stroke-width="1" opacity="0.8"/><circle cx="642.4" cy="349.7" r="3.50" fill="#e53935" stroke="none" stroke-width="1" opacity="0.8"/><circle cx="574.8" cy="361.6" r="3.50" fill="#e53935" stroke="none" stroke-width="1" opacity="0.8"/><circle cx="569.7" cy="355.9" r="3.50" fill="#e53935" stroke="none" stroke-width="1" opacity="0.8"/><circle cx="609.6" cy="370.5" r="3.50" fill="#e53935" stroke="none" stroke-width="1" opacity="0.8"/><circle cx="642.4" cy="369.2" r="3.50" fill="#e53935" stroke="none" stroke-width="1" opacity="0.8"/><circle cx="570.8" cy="365.3" r="3.50" fill="#e53935" stroke="none" stroke-width="1" opacity="0.8"/><circle cx="583.0" cy="370.7" r="3.50" fill="#e53935" stroke="none" stroke-width="1" opacity="0.8"/><circle cx="601.0" cy="365.1" r="3.50" fill="#e53935" stroke="none" stroke-width="1" opacity="0.8"/><circle cx="557.6" cy="356.2" r="3.50" fill="#e53935" stroke="none" stroke-width="1" opacity="0.8"/><circle cx="589.9" cy="355.2" r="3.50" fill="#e53935" stroke="none" stroke-width="1" opacity="0.8"/><circle cx="575.6" cy="363.9" r="3.50" fill="#e53935" stroke="none" stroke-width="1" opacity="0.8"/><circle cx="488.0" cy="361.4" r="3.50" fill="#e53935" stroke="none" stroke-width="1" opacity="0.8"/><circle cx="617.6" cy="363.5" r="3.50" fill="#e53935" stroke="none" stroke-width="1" opacity="0.8"/><circle cx="596.4" cy="362.5" r="3.50" fill="#e53935" stroke="none" stroke-width="1" opacity="0.8"/><circle cx="585.8" cy="367.6" r="3.50" fill="#e53935" stroke="none" stroke-width="1" opacity="0.8"/><circle cx="642.4" cy="361.6" r="3.50" fill="#e53935" stroke="none" stroke-width="1" opacity="0.8"/><circle cx="640.6" cy="368.1" r="3.50" fill="#e53935" stroke="none" stroke-width="1" opacity="0.8"/><circle cx="570.6" cy="374.1" r="3.50" fill="#e53935" stroke="none" stroke-width="1" opacity="0.8"/><circle cx="600.7" cy="358.5" r="3.50" fill="#e53935" stroke="none" stroke-width="1" opacity="0.8"/><circle cx="550.9" cy="369.3" r="3.50" fill="#e53935" stroke="none" stroke-width="1" opacity="0.8"/><circle cx="575.2" cy="356.3" r="3.50" fill="#e53935" stroke="none" stroke-width="1" opacity="0.8"/><circle cx="543.9" cy="361.0" r="3.50" fill="#e53935" stroke="none" stroke-width="1" opacity="0.8"/><circle cx="598.7" cy="358.3" r="3.50" fill="#e53935" stroke="none" stroke-width="1" opacity="0.8"/><circle cx="500.2" cy="355.3" r="3.50" fill="#e53935" stroke="none" stroke-width="1" opacity="0.8"/><circle cx="612.1" cy="366.3" r="3.50" fill="#e53935" stroke="none" stroke-width="1" opacity="0.8"/><circle cx="559.3" cy="367.3" r="3.50" fill="#e53935" stroke="none" stroke-width="1" opacity="0.8"/><circle cx="580.9" cy="365.7" r="3.50" fill="#e53935" stroke="none" stroke-width="1" opacity="0.8"/><circle cx="620.0" cy="353.1" r="3.50" fill="#e53935" stroke="none" stroke-width="1" opacity="0.8"/><circle cx="636.7" cy="368.2" r="3.50" fill="#e53935" stroke="none" stroke-width="1" opacity="0.8"/><circle cx="577.7" cy="358.2" r="3.50" fill="#e53935" stroke="none" stroke-width="1" opacity="0.8"/><circle cx="596.9" cy="360.6" r="3.50" fill="#e53935" stroke="none" stroke-width="1" opacity="0.8"/><circle cx="601.7" cy="358.3" r="3.50" fill="#e53935" stroke="none" stroke-width="1" opacity="0.8"/><circle cx="578.4" cy="364.4" r="3.50" fill="#e53935" stroke="none" stroke-width="1" opacity="0.8"/><circle cx="552.9" cy="348.5" r="3.50" fill="#e53935" stroke="none" stroke-width="1" opacity="0.8"/><circle cx="598.5" cy="357.1" r="3.50" fill="#e53935" stroke="none" stroke-width="1" opacity="0.8"/><circle cx="573.3" cy="373.6" r="3.50" fill="#e53935" stroke="none" stroke-width="1" opacity="0.8"/><circle cx="543.1" cy="364.1" r="3.50" fill="#e53935" stroke="none" stroke-width="1" opacity="0.8"/><circle cx="633.7" cy="353.0" r="3.50" fill="#e53935" stroke="none" stroke-width="1" opacity="0.8"/><circle cx="615.4" cy="354.8" r="3.50" fill="#e53935" stroke="none" stroke-width="1" opacity="0.8"/><circle cx="472.0" cy="353.4" r="3.50" fill="#e53935" stroke="none" stroke-width="1" opacity="0.8"/><circle cx="642.4" cy="365.0" r="3.50" fill="#e53935" stroke="none" stroke-width="1" opacity="0.8"/><circle cx="594.2" cy="372.4" r="3.50" fill="#e53935" stroke="none" stroke-width="1" opacity="0.8"/><circle cx="581.4" cy="363.0" r="3.50" fill="#e53935" stroke="none" stroke-width="1" opacity="0.8"/><circle cx="585.4" cy="356.8" r="3.50" fill="#e53935" stroke="none" stroke-width="1" opacity="0.8"/><circle cx="634.3" cy="364.7" r="3.50" fill="#e53935" stroke="none" stroke-width="1" opacity="0.8"/><circle cx="613.2" cy="341.9" r="3.50" fill="#e53935" stroke="none" stroke-width="1" opacity="0.8"/><circle cx="642.4" cy="364.7" r="3.50" fill="#e53935" stroke="none" stroke-width="1" opacity="0.8"/><circle cx="567.1" cy="357.1" r="3.50" fill="#e53935" stroke="none" stroke-width="1" opacity="0.8"/><circle cx="590.0" cy="368.8" r="3.50" fill="#e53935" stroke="none" stroke-width="1" opacity="0.8"/><circle cx="547.1" cy="363.8" r="3.50" fill="#e53935" stroke="none" stroke-width="1" opacity="0.8"/><circle cx="152.3" cy="341.2" r="3.50" fill="#1e88e5" stroke="none" stroke-width="1" opacity="0.8"/><circle cx="209.5" cy="324.9" r="3.50" fill="#1e88e5" stroke="none" stroke-width="1" opacity="0.8"/><circle cx="132.6" cy="357.6" r="3.50" fill="#1e88e5" stroke="none" stroke-width="1" opacity="0.8"/><circle cx="174.1" cy="367.6" r="3.50" fill="#1e88e5" stroke="none" stroke-width="1" opacity="0.8"/><circle cx="146.6" cy="355.8" r="3.50" fill="#1e88e5" stroke="none" stroke-width="1" opacity="0.8"/><circle cx="289.6" cy="356.4" r="3.50" fill="#1e88e5" stroke="none" stroke-width="1" opacity="0.8"/><circle cx="185.9" cy="317.3" r="3.50" fill="#1e88e5" stroke="none" stroke-width="1" opacity="0.8"/><circle cx="138.0" cy="345.3" r="3.50" fill="#1e88e5" stroke="none" stroke-width="1" opacity="0.8"/><circle cx="239.6" cy="341.2" r="3.50" fill="#1e88e5" stroke="none" stroke-width="1" opacity="0.8"/><circle cx="198.3" cy="364.1" r="3.50" fill="#1e88e5" stroke="none" stroke-width="1" opacity="0.8"/><circle cx="112.1" cy="339.8" r="3.50" fill="#1e88e5" stroke="none" stroke-width="1" opacity="0.8"/><circle cx="164.6" cy="342.3" r="3.50" fill="#1e88e5" stroke="none" stroke-width="1" opacity="0.8"/><circle cx="187.0" cy="321.5" r="3.50" fill="#1e88e5" stroke="none" stroke-width="1" opacity="0.8"/><circle cx="193.1" cy="363.5" r="3.50" fill="#1e88e5" stroke="none" stroke-width="1" opacity="0.8"/><circle cx="192.0" cy="344.3" r="3.50" fill="#1e88e5" stroke="none" stroke-width="1" opacity="0.8"/><circle cx="208.2" cy="344.0" r="3.50" fill="#1e88e5" stroke="none" stroke-width="1" opacity="0.8"/><circle cx="103.9" cy="365.7" r="3.50" fill="#1e88e5" stroke="none" stroke-width="1" opacity="0.8"/><circle cx="183.8" cy="336.6" r="3.50" fill="#1e88e5" stroke="none" stroke-width="1" opacity="0.8"/><circle cx="182.1" cy="353.0" r="3.50" fill="#1e88e5" stroke="none" stroke-width="1" opacity="0.8"/><circle cx="168.6" cy="354.8" r="3.50" fill="#1e88e5" stroke="none" stroke-width="1" opacity="0.8"/><circle cx="144.0" cy="365.5" r="3.50" fill="#1e88e5" stroke="none" stroke-width="1" opacity="0.8"/><circle cx="110.5" cy="353.5" r="3.50" fill="#1e88e5" stroke="none" stroke-width="1" opacity="0.8"/><circle cx="195.2" cy="367.5" r="3.50" fill="#1e88e5" stroke="none" stroke-width="1" opacity="0.8"/><circle cx="168.1" cy="368.9" r="3.50" fill="#1e88e5" stroke="none" stroke-width="1" opacity="0.8"/><circle cx="185.2" cy="349.7" r="3.50" fill="#1e88e5" stroke="none" stroke-width="1" opacity="0.8"/><circle cx="222.0" cy="326.8" r="3.50" fill="#1e88e5" stroke="none" stroke-width="1" opacity="0.8"/><circle cx="99.8" cy="352.4" r="3.50" fill="#1e88e5" stroke="none" stroke-width="1" opacity="0.8"/><circle cx="256.5" cy="344.9" r="3.50" fill="#1e88e5" stroke="none" stroke-width="1" opacity="0.8"/><circle cx="160.7" cy="361.2" r="3.50" fill="#1e88e5" stroke="none" stroke-width="1" opacity="0.8"/><circle cx="208.0" cy="351.0" r="3.50" fill="#1e88e5" stroke="none" stroke-width="1" opacity="0.8"/><circle cx="202.0" cy="361.3" r="3.50" fill="#1e88e5" stroke="none" stroke-width="1" opacity="0.8"/><circle cx="153.5" cy="324.8" r="3.50" fill="#1e88e5" stroke="none" stroke-width="1" opacity="0.8"/><circle cx="217.4" cy="335.5" r="3.50" fill="#1e88e5" stroke="none" stroke-width="1" opacity="0.8"/><circle cx="221.7" cy="338.2" r="3.50" fill="#1e88e5" stroke="none" stroke-width="1" opacity="0.8"/><circle cx="183.5" cy="369.7" r="3.50" fill="#1e88e5" stroke="none" stroke-width="1" opacity="0.8"/><circle cx="180.2" cy="344.4" r="3.50" fill="#1e88e5" stroke="none" stroke-width="1" opacity="0.8"/><circle cx="190.6" cy="361.0" r="3.50" fill="#1e88e5" stroke="none" stroke-width="1" opacity="0.8"/><circle cx="133.0" cy="356.3" r="3.50" fill="#1e88e5" stroke="none" stroke-width="1" opacity="0.8"/><circle cx="211.4" cy="364.9" r="3.50" fill="#1e88e5" stroke="none" stroke-width="1" opacity="0.8"/><circle cx="276.3" cy="355.0" r="3.50" fill="#1e88e5" stroke="none" stroke-width="1" opacity="0.8"/><circle cx="190.5" cy="344.0" r="3.50" fill="#1e88e5" stroke="none" stroke-width="1" opacity="0.8"/><circle cx="167.8" cy="359.7" r="3.50" fill="#1e88e5" stroke="none" stroke-width="1" opacity="0.8"/><circle cx="178.4" cy="343.8" r="3.50" fill="#1e88e5" stroke="none" stroke-width="1" opacity="0.8"/><circle cx="163.9" cy="341.3" r="3.50" fill="#1e88e5" stroke="none" stroke-width="1" opacity="0.8"/><circle cx="233.2" cy="347.6" r="3.50" fill="#1e88e5" stroke="none" stroke-width="1" opacity="0.8"/><circle cx="122.6" cy="353.2" r="3.50" fill="#1e88e5" stroke="none" stroke-width="1" opacity="0.8"/><circle cx="188.0" cy="362.0" r="3.50" fill="#1e88e5" stroke="none" stroke-width="1" opacity="0.8"/><circle cx="207.7" cy="369.5" r="3.50" fill="#1e88e5" stroke="none" stroke-width="1" opacity="0.8"/><circle cx="205.9" cy="324.9" r="3.50" fill="#1e88e5" stroke="none" stroke-width="1" opacity="0.8"/><circle cx="101.7" cy="370.5" r="3.50" fill="#1e88e5" stroke="none" stroke-width="1" opacity="0.8"/><circle cx="178.4" cy="342.0" r="3.50" fill="#1e88e5" stroke="none" stroke-width="1" opacity="0.8"/><circle cx="109.9" cy="324.6" r="3.50" fill="#1e88e5" stroke="none" stroke-width="1" opacity="0.8"/><circle cx="90.0" cy="333.1" r="3.50" fill="#1e88e5" stroke="none" stroke-width="1" opacity="0.8"/><circle cx="132.9" cy="353.5" r="3.50" fill="#1e88e5" stroke="none" stroke-width="1" opacity="0.8"/><circle cx="205.1" cy="352.7" r="3.50" fill="#1e88e5" stroke="none" stroke-width="1" opacity="0.8"/><circle cx="236.8" cy="341.0" r="3.50" fill="#1e88e5" stroke="none" stroke-width="1" opacity="0.8"/><circle cx="200.7" cy="346.8" r="3.50" fill="#1e88e5" stroke="none" stroke-width="1" opacity="0.8"/><circle cx="119.4" cy="341.0" r="3.50" fill="#1e88e5" stroke="none" stroke-width="1" opacity="0.8"/><circle cx="107.0" cy="336.5" r="3.50" fill="#1e88e5" stroke="none" stroke-width="1" opacity="0.8"/><circle cx="178.2" cy="350.9" r="3.50" fill="#1e88e5" stroke="none" stroke-width="1" opacity="0.8"/><circle cx="690.0" cy="120.0" r="6.00" fill="#2e7d32" stroke="none" stroke-width="1" opacity="1"/><text x="704.0" y="125.0" font-size="14" fill="#263238" text-anchor="start" font-weight="normal" >ស្រែវស្សា</text><circle cx="690.0" cy="148.0" r="6.00" fill="#ff9800" stroke="none" stroke-width="1" opacity="1"/><text x="704.0" y="153.0" font-size="14" fill="#263238" text-anchor="start" font-weight="normal" >ដំណាំដទៃ</text><circle cx="690.0" cy="176.0" r="6.00" fill="#1b5e20" stroke="none" stroke-width="1" opacity="1"/><text x="704.0" y="181.0" font-size="14" fill="#263238" text-anchor="start" font-weight="normal" >ព្រៃ</text><circle cx="690.0" cy="204.0" r="6.00" fill="#e53935" stroke="none" stroke-width="1" opacity="1"/><text x="704.0" y="209.0" font-size="14" fill="#263238" text-anchor="start" font-weight="normal" >ទីក្រុង</text><circle cx="690.0" cy="232.0" r="6.00" fill="#1e88e5" stroke="none" stroke-width="1" opacity="1"/><text x="704.0" y="237.0" font-size="14" fill="#263238" text-anchor="start" font-weight="normal" >ទឹកអចិន្ត្រៃយ៍</text><text x="690.0" y="290.0" font-size="14" fill="#2e7d32" text-anchor="start" font-weight="bold" >ស្រែ = min &lt; −១៩ dB</text><text x="690.0" y="314.0" font-size="14" fill="#2e7d32" text-anchor="start" font-weight="bold" >និង ការកើនឡើង &gt; ៥ dB</text><text x="690.0" y="360.0" font-size="15" fill="#263238" text-anchor="start" font-weight="bold" >ត្រឹមត្រូវ ៩៧% (ក្លែងធ្វើ)</text></svg>